# xmcd
#
# Track frame offsets:
#	150
#	14879
#	32448
#	46795
#	47606
#	65387
#	80730
#	97160
#	113342
#	114166
#	127668
#	142322
#	159006
#	179499
#	179979
#	192142
#
# Disc length: 2775 seconds
# Revision: 1
# Processed by: cddbd v1.5.2PL0 Copyright (c) Steve Scherf et al.
# Submitted via: dBpowerAMP V12.0
#
DISCID=d40ad510
DTITLE=KekeWyatt,AKAKe'TaraShavonWyatt,Indianapolis,IN - Rated Love
DYEAR=2016
DGENRE=R&B/Soul
TTITLE0=Anything
TTITLE1=Sexy Song
TTITLE2=On Repeat
TTITLE3=Things Change (Interlude)
TTITLE4=24 Hours
TTITLE5=No Peace
TTITLE6=If It Ain't You
TTITLE7=Dumb Love
TTITLE8=Make It Work (Interlude)
TTITLE9=Love Me
TTITLE10=Still Have Love
TTITLE11=I Know
TTITLE12=If I Had You
TTITLE13=Love Reigns (Interlude)
TTITLE14=It's Reigning
TTITLE15=If I Had You (Radio Edit)
EXTD=
EXTT0=
EXTT1=
EXTT2=
EXTT3=
EXTT4=
EXTT5=
EXTT6=
EXTT7=
EXTT8=
EXTT9=
EXTT10=
EXTT11=
EXTT12=
EXTT13=
EXTT14=
EXTT15=
PLAYORDER=
